<svg width="155" height="20" viewBox="0 0 155 20" fill="none" xmlns="http://www.w3.org/2000/svg">
  <!-- Outer arc -->
  <path d="M36.0566 9.50353C35.3649 8.33917 34.5495 7.24175 33.6285 6.24373C29.9691 2.27598 24.7741 0 19.3783 0C8.69416 0 0 8.69416 0 19.3783C0 19.4391 0.004057 19.498 0.00811401 19.5548H4.04686C4.05295 19.4959 4.05498 19.4371 4.05498 19.3783C4.05498 10.9296 10.9275 4.057 19.3763 4.057C23.6422 4.057 27.7499 5.85629 30.6426 8.99438C31.3708 9.78347 32.0179 10.6517 32.5636 11.5726C33.1356 12.5361 34.3791 12.8546 35.3426 12.2826C36.3061 11.7105 36.6246 10.4671 36.0526 9.50353H36.0566Z" fill="#FD5201"/>
  <!-- Middle arc -->
  <path d="M31.5368 13.4567C30.999 12.3553 30.3115 11.3289 29.4961 10.41C26.9301 7.51729 23.2443 5.86 19.38 5.86C11.9252 5.86 5.86 11.9252 5.86 19.38C5.86 19.4408 5.86406 19.4996 5.86812 19.5564H9.9069C9.91295 19.4976 9.91498 19.4388 9.91498 19.38C9.91498 14.1627 14.1586 9.917 19.3779 9.917C22.0819 9.917 24.6622 11.0773 26.4594 13.1018C27.0315 13.7468 27.5122 14.4649 27.8875 15.2357C28.3784 16.2419 29.5935 16.6597 30.5996 16.1688C31.6058 15.678 32.0236 14.4629 31.5327 13.4567H31.5368Z" fill="#FD5201"/>
  <!-- Inner arc -->
  <path d="M26.7146 17.1219C26.4407 16.2781 26.0249 15.4951 25.4792 14.7932C24.0268 12.929 21.8381 11.86 19.4769 11.86C15.2819 11.86 11.87 15.2719 11.87 19.4669C11.87 19.5277 11.874 19.5866 11.8781 19.6434H15.9169C15.923 19.5845 15.925 19.5257 15.925 19.4669C15.925 17.5094 17.5174 15.917 19.4749 15.917C20.5763 15.917 21.5987 16.416 22.2782 17.2883C22.5338 17.6149 22.7265 17.98 22.8543 18.3715C23.1992 19.4365 24.3433 20.0227 25.4082 19.6758C26.4732 19.331 27.0594 18.1869 26.7126 17.1219H26.7146Z" fill="#FD5201"/>
  <!-- "healthee" text -->
  <g transform="translate(44, 0)">
    <!-- h -->
    <path d="M7.32793 4.86381C3.91345 4.86381 2.99103 5.98731 2.99103 5.98731C3.00485 5.47206 3.01491 4.94047 3.01491 4.38501V0.00161095H6.75298e-05V19.287H3.01491V10.9802C3.01491 8.83752 4.44881 7.7555 6.87551 7.7555C8.61228 7.7555 10.4911 8.83752 10.4911 10.9802V19.287H13.5059V10.8269C13.5059 7.09195 10.4885 4.86256 7.32793 4.86256V4.86381Z" fill="black"/>
    <!-- e (1st) -->
    <path d="M27.3307 14.3651C26.3743 15.936 24.8575 16.8006 23.0604 16.8006C20.6689 16.8006 18.9497 15.2335 18.687 12.8646H29.6028L29.6078 12.5329C29.6455 10.1313 28.9593 8.14445 27.6235 6.78846C26.4309 5.57699 24.7456 4.90968 22.8794 4.90968C20.9051 4.90968 19.1017 5.65868 17.7998 7.01844C16.5066 8.37065 15.7928 10.2369 15.7928 12.2727L15.7953 12.4147C15.828 14.3802 16.5343 16.1648 17.7935 17.4541C19.1068 18.7976 20.9667 19.5378 23.0302 19.5378C26.6721 19.5378 28.664 17.2707 29.5274 15.9184L29.697 15.6533L27.5166 14.0522L27.3256 14.3651H27.3307ZM18.8956 10.4354C19.48 8.6798 20.9931 7.56888 22.8555 7.56888C24.718 7.56888 26.0915 8.60692 26.5641 10.4354H18.8956Z" fill="black"/>
    <!-- a -->
    <path d="M42.7542 6.61001C41.6835 5.53175 40.0888 4.90968 38.3168 4.90968C34.3217 4.90968 31.3094 8.05396 31.3094 12.2237V12.2262C31.3094 16.396 34.3217 19.5403 38.3168 19.5403C40.0611 19.5403 41.681 18.9031 42.7542 17.8337L42.7731 19.2839H45.5554V5.16605H42.7731L42.7542 6.61001ZM42.719 12.2237C42.719 14.8854 41.0527 16.6737 38.5732 16.6737C36.0937 16.6737 34.3268 14.8025 34.3268 12.2237C34.3268 9.64495 36.1125 7.74858 38.5732 7.74858C41.0338 7.74858 42.719 9.54693 42.719 12.2237Z" fill="black"/>
    <!-- l -->
    <path d="M51.776 0.00161095H48.7611V19.2845H51.776V0.00161095Z" fill="black"/>
    <!-- t -->
    <path d="M60.2649 4.80803e-05H57.2501V19.2855H60.2649V4.80803e-05Z" fill="black"/>
    <path d="M63.5845 5.16968H53.9317V7.98219H63.5845V5.16968Z" fill="black"/>
    <!-- h (2nd) -->
    <path d="M73.0715 4.86381C69.657 4.86381 68.7346 5.98731 68.7346 5.98731C68.7484 5.47206 68.7585 4.94047 68.7585 4.38501V0.00161095H65.7436V19.287H68.7585V10.9802C68.7585 8.83752 70.1924 7.7555 72.6191 7.7555C74.3558 7.7555 76.2346 8.83752 76.2346 10.9802V19.287H79.2494V10.8269C79.2494 7.09196 76.2321 4.86256 73.0715 4.86256V4.86381Z" fill="black"/>
    <!-- e (2nd) -->
    <path d="M92.6738 14.3651C91.7174 15.936 90.2006 16.8006 88.4035 16.8006C86.0107 16.8006 84.2928 15.2335 84.0301 12.8646H94.9459L94.9509 12.5329C94.9886 10.1313 94.3025 8.14445 92.9666 6.78846C91.774 5.57699 90.0887 4.90968 88.2225 4.90968C86.2482 4.90968 84.4449 5.65868 83.1429 7.01844C81.8498 8.37065 81.1359 10.2369 81.1359 12.2727L81.1385 12.4147C81.1711 14.3802 81.8774 16.1648 83.1366 17.4541C84.4499 18.7976 86.3098 19.5378 88.3733 19.5378C92.0153 19.5378 94.0071 17.2707 94.8705 15.9184L95.0402 15.6533L92.8598 14.0522L92.6687 14.3651H92.6738ZM84.2388 10.4354C84.8231 8.6798 86.3362 7.56888 88.1986 7.56888C90.0611 7.56888 91.4347 8.60692 91.9072 10.4354H84.2388Z" fill="black"/>
    <!-- e (3rd) -->
    <path d="M108.529 14.0522L108.338 14.3651C107.382 15.936 105.865 16.8006 104.068 16.8006C101.675 16.8006 99.9572 15.2335 99.6945 12.8646H110.61L110.615 12.5329C110.653 10.1313 109.967 8.14445 108.631 6.78846C107.438 5.57699 105.753 4.90968 103.887 4.90968C101.914 4.90968 100.11 5.65868 98.8098 7.01844C97.5166 8.37065 96.8041 10.2369 96.8041 12.2727L96.8066 12.4147C96.8393 14.3802 97.5455 16.1648 98.8035 17.4541C100.117 18.7976 101.977 19.5378 104.041 19.5378C107.681 19.5378 109.674 17.2707 110.537 15.9184L110.707 15.6533L108.527 14.0522H108.529ZM99.9056 10.4354C100.49 8.6798 102.003 7.56888 103.866 7.56888C105.728 7.56888 107.099 8.60692 107.572 10.4354H99.9056Z" fill="black"/>
  </g>
</svg>
